<svg width="9" height="15" fill="none" xmlns="http://www.w3.org/2000/svg"><path d="M5.727 14.472H3.363a.706.706 0 01-.716-.695V8.606h-1.38a.706.706 0 01-.715-.695V5.695c0-.383.32-.695.716-.695h1.379V3.89c0-1.1.356-2.036 1.03-2.707C4.354.51 5.3.153 6.412.153l1.803.004c.394 0 .715.312.715.694V2.91a.706.706 0 01-.716.694H7c-.37 0-.464.073-.484.095-.034.036-.073.14-.073.426V5h1.68c.126 0 .249.03.354.088a.694.694 0 01.368.607v2.216a.706.706 0 01-.716.695H6.443v5.171a.706.706 0 01-.716.695zm-2.215-.84h2.065V8.23c0-.256.215-.464.478-.464H7.98V5.84H6.055a.472.472 0 01-.478-.464V4.124c0-.328.035-.701.29-.982.308-.338.794-.378 1.133-.378h1.064V.996L6.412.993c-1.789 0-2.9 1.11-2.9 2.898v1.485a.472.472 0 01-.478.464H1.417v1.926h1.617c.264 0 .478.208.478.464v5.403zM8.213.997z" fill="#828282"/></svg>