<svg width="21" height="22" fill="none" xmlns="http://www.w3.org/2000/svg"><g clip-path="url(#clip0)"><path d="M10.54 21.957l-.445-.5a41.573 41.573 0 01-3.202-4.217C4.7 13.943 3.46 11.052 3.206 8.647a7.96 7.96 0 01-.062-.957c0-4.264 3.318-7.733 7.396-7.733 4.077 0 7.395 3.469 7.396 7.732 0 .288-.02.597-.06.944-.248 2.406-1.487 5.3-3.683 8.602a41.571 41.571 0 01-3.207 4.222l-.446.5zm0-20.727c-3.407 0-6.179 2.898-6.179 6.46 0 .244.018.507.053.803l.002.01c.461 4.415 4.721 9.871 6.124 11.563 1.405-1.693 5.675-7.158 6.126-11.573l.001-.011c.036-.301.052-.553.052-.793 0-3.561-2.773-6.46-6.179-6.46zm0 11.662c-2.743 0-4.975-2.334-4.975-5.202s2.232-5.2 4.975-5.2c2.743 0 4.974 2.333 4.974 5.201 0 2.868-2.231 5.202-4.974 5.202zm0-9.13c-2.072 0-3.757 1.762-3.757 3.928 0 2.167 1.685 3.929 3.757 3.929 2.071 0 3.756-1.762 3.756-3.929 0-2.166-1.685-3.928-3.756-3.928z" fill="#4F4F4F"/></g><defs><clipPath id="clip0"><path fill="#fff" d="M0 0h21v22H0z"/></clipPath></defs></svg>