<svg width="14" height="14" fill="none" xmlns="http://www.w3.org/2000/svg"><path d="M11.817 8.098a1.517 1.517 0 00-2.142 0l-.645.646A9.398 9.398 0 015.256 4.97l.645-.646c.59-.59.59-1.55 0-2.141L4.161.443c-.59-.59-1.55-.59-2.14 0L.627 1.835c-.797.797-.837 2.168-.112 3.86.63 1.468 1.782 3.083 3.244 4.545 1.462 1.462 3.076 2.614 4.545 3.244.804.344 1.535.516 2.167.516.698 0 1.274-.21 1.693-.628l1.392-1.392c.285-.286.443-.667.443-1.07 0-.405-.158-.786-.444-1.072l-1.74-1.74zm-.75 4.176c-.227.228-.927.308-2.15-.217-1.292-.553-2.734-1.589-4.06-2.915-1.326-1.326-2.36-2.767-2.914-4.059-.525-1.223-.445-1.923-.217-2.15L3.09 1.566l1.686 1.686-.808.809c-.366.365-.454.92-.22 1.379a10.95 10.95 0 004.81 4.81c.46.234 1.013.146 1.379-.22l.808-.808 1.686 1.686-1.365 1.365z" fill="#4F4F4F"/></svg>